# Blender 4.3.2
# www.blender.org
mtllib mesecons_walllever_off.mtl
o Куб.001
v -0.060000 -0.369706 0.054558
v -0.060000 0.054558 -0.369706
v -0.060000 -0.454558 -0.030294
v -0.060000 -0.030294 -0.454558
v 0.060000 -0.369706 0.054558
v 0.060000 0.054558 -0.369706
v 0.060000 -0.454558 -0.030294
v 0.060000 -0.030294 -0.454558
v -0.200000 -0.500000 0.300000
v -0.200000 -0.300000 0.300000
v -0.200000 -0.500000 -0.300000
v -0.200000 -0.300000 -0.300000
v 0.200000 -0.500000 0.300000
v 0.200000 -0.300000 0.300000
v 0.200000 -0.500000 -0.300000
v 0.200000 -0.300000 -0.300000
vn -1.0000 -0.0000 -0.0000
vn -0.0000 -0.7071 -0.7071
vn 1.0000 -0.0000 -0.0000
vn -0.0000 0.7071 0.7071
vn -0.0000 -0.7071 0.7071
vn -0.0000 0.7071 -0.7071
vn -0.0000 -0.0000 -1.0000
vn -0.0000 -0.0000 1.0000
vn -0.0000 -1.0000 -0.0000
vn -0.0000 1.0000 -0.0000
vt 0.558241 0.302298
vt 0.558215 0.562000
vt 0.478393 0.561974
vt 0.478419 0.302273
vt 0.390758 0.561949
vt 0.390784 0.302247
vt 0.307444 0.561924
vt 0.307470 0.302222
vt 0.222595 0.561911
vt 0.222621 0.302210
vt 0.390810 0.257389
vt 0.307495 0.257364
vt 0.390733 0.604853
vt 0.307418 0.604829
vt 1.000000 0.679331
vt 1.000000 0.929896
vt 0.000000 0.929896
vt 0.000000 0.679331
vt 0.500000 0.750000
vt 0.500000 1.000000
vt 0.000000 1.000000
vt 0.000000 0.750000
vt 1.000000 0.749717
vt 1.000000 1.000283
vt 0.001747 1.000283
vt 0.001747 0.749717
vt 0.500000 0.749717
vt 0.500000 1.000283
vt 0.001748 1.000283
vt 0.001748 0.749717
vt 0.841880 0.750000
vt 0.841880 1.000000
vt 0.001747 1.000000
vt 0.001747 0.750000
vt 0.875000 0.750000
vt 0.875000 1.000000
s 0
usemtl Материал
f 1/1/1 2/2/1 4/3/1 3/4/1
f 3/4/2 4/3/2 8/5/2 7/6/2
f 7/6/3 8/5/3 6/7/3 5/8/3
f 5/8/4 6/7/4 2/9/4 1/10/4
f 3/11/5 7/6/5 5/8/5 1/12/5
f 8/5/6 4/13/6 2/14/6 6/7/6
f 9/15/1 10/16/1 12/17/1 11/18/1
f 11/19/7 12/20/7 16/21/7 15/22/7
f 15/23/3 16/24/3 14/25/3 13/26/3
f 13/27/8 14/28/8 10/29/8 9/30/8
f 11/31/9 15/32/9 13/33/9 9/34/9
f 16/35/10 12/36/10 10/21/10 14/22/10
