P1
16 16
0000000000000000
0000000110000000
0000001111000000
0000011001100000
0000110000110000
0001100110011000
0011100110011100
0111111100111110
0111111001111110
0011111001111100
0001111111111000
0000111001110000
0000011001100000
0000001111000000
0000000110000000
0000000000000000
